<svg width="986" height="906" viewBox="0 0 986 906" fill="none" xmlns="http://www.w3.org/2000/svg">
<g opacity="0.25">
<path d="M234.827 543.266H108.927C78.853 543.266 51.627 533.14 31.906 516.748C12.185 500.356 0 477.721 0 452.711C0 402.711 48.77 362.165 108.927 362.165H116.236C117.211 362.165 118.196 362.155 119.162 362.135C125.291 398.546 138.692 433.35 158.564 464.47C178.436 495.589 204.373 522.388 234.827 543.266Z" fill="#CCD2D6"/>
<path d="M390.257 98.18C350.983 98.1666 312.432 108.748 278.668 128.81C244.904 148.871 217.177 177.67 198.41 212.17C215.097 228.079 225.194 248.863 225.194 271.628C225.194 303.928 204.833 332.278 174.194 348.304C189.574 453.853 280.457 534.923 390.257 534.923C510.877 534.923 608.623 437.147 608.623 316.557C608.623 195.967 510.878 98.19 390.257 98.19V98.18ZM492.517 431.5C492.515 435.126 491.074 438.602 488.51 441.166C485.946 443.73 482.47 445.171 478.844 445.173H301.692C298.063 445.175 294.582 443.736 292.015 441.172C289.447 438.608 288.003 435.129 288 431.5V201.581C288.003 197.952 289.447 194.473 292.015 191.909C294.582 189.345 298.063 187.906 301.692 187.908H424.331C427.957 187.918 431.433 189.359 434.004 191.917L488.517 246.43C490.406 248.319 491.701 250.719 492.241 253.335C492.435 254.241 492.53 255.166 492.527 256.093V431.493L492.517 431.5Z" fill="#CCD2D6"/>
<path d="M738.917 633.802C738.917 658.812 751.112 681.449 770.833 697.83C790.554 714.211 817.771 724.357 847.864 724.357H876.105C906.179 724.357 933.405 734.493 953.126 750.875C972.847 767.257 985.042 789.893 985.042 814.903C985.042 864.894 936.262 905.439 876.105 905.439H108.927C78.853 905.439 51.627 895.303 31.906 878.912C12.185 862.521 0 839.905 0 814.904C0 764.893 48.77 724.358 108.927 724.358H254.488C268.023 727.096 279.272 728.658 286.601 729.52C289.225 729.829 291.876 729.237 294.118 727.841C296.361 726.445 298.063 724.328 298.944 721.837L301.044 715.917H301.054C315.12 710.572 327.928 702.375 338.673 691.842C336.348 696.905 333.59 702.687 330.349 709.268C315.219 740.012 284.386 758.314 269.857 765.574C267.596 766.711 265.767 768.554 264.647 770.824C263.528 773.094 263.178 775.667 263.651 778.153L275.651 841.108C276.199 843.981 277.807 846.542 280.155 848.285C282.503 850.027 285.421 850.823 288.329 850.515C305.794 848.624 342.596 841.896 383.751 818.048C427.182 792.88 447.435 752.739 454.694 734.782C455.714 732.251 455.814 729.443 454.977 726.846C454.14 724.248 452.419 722.027 450.113 720.568L364.371 666.39C362.334 665.097 359.944 664.473 357.535 664.607C361.794 654.891 363.996 644.399 364 633.79C363.922 617.489 358.783 601.614 349.293 588.359C400.322 596 452.47 589.189 499.825 568.7L506.376 577.24C510.505 582.621 516.064 586.733 522.418 589.105C528.772 591.477 535.666 592.015 542.311 590.656C565.696 635.84 627.676 750.766 676.337 797.606C737.537 856.542 799.794 805.516 773.187 743.024C748.994 686.147 640.52 576.471 603.287 539.824C604.934 534.345 605.256 528.552 604.225 522.925C603.194 517.297 600.84 511.994 597.357 507.455L593.151 501.968C639.534 451.365 665.219 385.186 665.119 316.542C665.119 164.742 542.056 41.683 390.26 41.683C340.821 41.6665 292.293 54.9871 249.79 80.241C207.288 105.495 172.385 141.747 148.76 185.176C138.136 182.433 127.206 181.052 116.234 181.068H108.925C78.851 181.068 51.625 170.922 31.904 154.541C12.183 138.16 0 115.537 0 90.536C0 40.525 48.77 0 108.927 0H876.115C906.189 0 933.415 10.126 953.136 26.518C972.857 42.91 985.052 65.526 985.052 90.537C985.052 140.537 936.272 181.083 876.115 181.083H801.941C741.774 181.082 693 221.617 693 271.628C693 290.935 700.27 308.814 712.652 323.501C712.652 323.629 712.652 323.777 712.642 323.901C712.622 324.719 712.583 325.546 712.553 326.374C712.533 326.867 712.514 327.349 712.484 327.852C712.445 328.758 712.395 329.665 712.346 330.59C712.326 331.023 712.307 331.457 712.277 331.89C712.198 333.259 712.11 334.638 712.021 336.047C711.921 337.525 711.804 339.002 711.657 340.47C711.618 340.963 711.549 341.445 711.49 341.938C711.382 342.913 711.273 343.898 711.145 344.864C711.066 345.455 710.978 346.026 710.899 346.617C710.771 347.484 710.653 348.351 710.505 349.227C710.405 349.848 710.288 350.468 710.18 351.069C710.042 351.896 709.894 352.724 709.737 353.542C709.619 354.172 709.491 354.803 709.353 355.442C709.186 356.242 709.028 357.028 708.841 357.826C708.703 358.466 708.541 359.107 708.398 359.747C708.221 360.515 708.043 361.303 707.846 362.072L707.346 363.993C707.146 364.751 706.946 365.51 706.735 366.259C706.548 366.899 706.371 367.54 706.183 368.18C705.966 368.929 705.75 369.667 705.523 370.416C705.323 371.046 705.129 371.687 704.923 372.316C704.696 373.055 704.46 373.784 704.214 374.523C704.007 375.144 703.79 375.774 703.574 376.404C703.328 377.133 703.074 377.852 702.825 378.561C702.598 379.182 702.382 379.812 702.155 380.423C701.879 381.142 701.623 381.861 701.347 382.57C701.111 383.181 700.884 383.791 700.638 384.383C700.352 385.102 700.077 385.801 699.791 386.511C699.545 387.102 699.299 387.693 699.062 388.284C698.762 388.993 698.462 389.693 698.156 390.402C697.91 390.973 697.663 391.555 697.417 392.126C697.102 392.826 696.787 393.515 696.471 394.214C696.225 394.775 695.971 395.347 695.713 395.898C695.388 396.607 695.063 397.287 694.728 397.986C694.482 398.528 694.228 399.07 693.969 399.602C693.624 400.311 693.269 401.002 692.925 401.702C692.679 402.214 692.425 402.726 692.176 403.229C691.812 403.958 691.427 404.677 691.053 405.386C690.817 405.849 690.57 406.322 690.334 406.775C689.901 407.602 689.457 408.4 689.024 409.218C688.837 409.553 688.66 409.898 688.482 410.242C687.852 411.385 687.221 412.517 686.591 413.631C686.453 413.877 686.291 414.131 686.158 414.38C685.665 415.237 685.183 416.094 684.68 416.931C684.444 417.345 684.197 417.739 683.961 418.131C683.561 418.801 683.161 419.481 682.769 420.141C682.493 420.584 682.227 421.018 681.961 421.451C681.577 422.062 681.212 422.682 680.828 423.273C680.542 423.716 680.276 424.16 679.991 424.613C679.636 425.174 679.272 425.746 678.917 426.307C678.617 426.75 678.326 427.194 678.04 427.657C677.695 428.189 677.34 428.721 677.006 429.243C676.706 429.686 676.415 430.12 676.129 430.553C675.794 431.065 675.449 431.587 675.095 432.09C674.809 432.523 674.534 432.937 674.238 433.351C673.903 433.851 673.568 434.346 673.214 434.829C672.928 435.243 672.652 435.656 672.367 436.06C672.032 436.543 671.707 437.006 671.372 437.46C671.086 437.86 670.81 438.26 670.525 438.652C670.21 439.095 669.885 439.539 669.56 439.992C669.284 440.376 669.018 440.741 668.733 441.125C668.418 441.558 668.103 441.982 667.787 442.406C667.511 442.77 667.245 443.135 666.979 443.48C666.664 443.894 666.358 444.298 666.053 444.701C665.797 445.046 665.531 445.401 665.285 445.735C664.241 447.085 663.246 448.375 662.285 449.596C660.922 451.311 659.955 453.307 659.453 455.439C658.952 457.571 658.927 459.788 659.382 461.932C659.836 464.075 660.759 466.091 662.083 467.836C663.408 469.581 665.101 471.012 667.043 472.026L695.432 486.851L755.865 518.422L757.934 519.496C758.449 519.768 759.029 519.894 759.61 519.861C760.191 519.828 760.753 519.637 761.234 519.309C761.796 518.925 762.505 518.432 763.342 517.809C763.342 517.809 763.362 517.789 763.372 517.789C763.658 517.572 763.943 517.346 764.259 517.109C764.281 517.094 764.304 517.081 764.328 517.07C764.633 516.834 764.958 516.577 765.284 516.311L765.412 516.211C765.737 515.955 766.082 515.669 766.436 515.383C766.495 515.324 766.554 515.283 766.613 515.235C766.958 514.949 767.332 514.644 767.697 514.319C767.766 514.26 767.825 514.211 767.884 514.152C768.278 513.827 768.662 513.492 769.066 513.128C769.125 513.069 769.174 513.028 769.233 512.98C769.657 512.606 770.09 512.221 770.523 511.818C770.561 511.787 770.597 511.754 770.631 511.718C771.084 511.294 771.557 510.861 772.031 510.408C772.051 510.396 772.071 510.383 772.09 510.369C772.573 509.926 773.055 509.443 773.558 508.96C773.617 508.901 773.666 508.852 773.735 508.793C774.218 508.31 774.7 507.828 775.203 507.315C775.29 507.241 775.372 507.163 775.449 507.079C775.942 506.576 776.444 506.054 776.956 505.513C777.046 505.426 777.132 505.334 777.212 505.237C777.734 504.695 778.256 504.137 778.798 503.553C778.877 503.453 778.965 503.366 779.044 503.277C779.596 502.677 780.144 502.056 780.728 501.415C780.787 501.346 780.836 501.287 780.905 501.215C781.505 500.545 782.105 499.846 782.727 499.127C783.349 498.408 783.978 497.669 784.608 496.921C784.677 496.842 784.736 496.773 784.808 496.685C785.419 495.956 786.029 495.217 786.64 494.449L786.926 494.104C787.537 493.355 788.157 492.567 788.788 491.779C788.888 491.641 788.995 491.503 789.103 491.365C789.724 490.565 790.354 489.747 790.994 488.912C791.094 488.774 791.201 488.636 791.299 488.498C791.949 487.641 792.599 486.764 793.269 485.848C793.357 485.741 793.44 485.629 793.515 485.513C794.215 484.567 794.904 483.602 795.603 482.613C795.632 482.564 795.665 482.517 795.703 482.475C796.412 481.48 797.112 480.456 797.831 479.412C797.89 479.333 797.939 479.245 797.998 479.176C798.707 478.142 799.407 477.088 800.126 476.014L800.426 475.571C801.126 474.527 801.815 473.443 802.526 472.34C802.634 472.163 802.753 471.985 802.871 471.798C803.571 470.705 804.271 469.582 804.979 468.439C805.097 468.252 805.215 468.055 805.334 467.868C806.043 466.706 806.752 465.533 807.481 464.312C807.581 464.145 807.681 463.977 807.786 463.8C808.525 462.549 809.27 461.275 810.022 459.978C810.091 459.87 810.14 459.771 810.199 459.673C810.968 458.334 811.743 456.967 812.524 455.573C812.554 455.514 812.583 455.465 812.613 455.406C813.382 454.017 814.157 452.602 814.938 451.16C815.038 450.983 815.125 450.815 815.224 450.638C815.963 449.249 816.711 447.821 817.46 446.392C817.588 446.156 817.706 445.929 817.825 445.692C818.564 444.254 819.303 442.806 820.051 441.318C820.169 441.072 820.297 440.818 820.415 440.569C821.164 439.082 821.912 437.561 822.661 436.008C822.779 435.772 822.888 435.525 823.006 435.289C823.765 433.689 824.543 432.089 825.311 430.433C825.39 430.256 825.459 430.098 825.538 429.933C826.356 428.18 827.163 426.416 827.971 424.614C828.454 423.56 828.917 422.496 829.36 421.442C829.508 421.087 829.665 420.733 829.803 420.378C830.108 419.669 830.403 418.969 830.69 418.26C830.867 417.836 831.025 417.413 831.202 416.979C831.448 416.349 831.714 415.708 831.951 415.079C832.138 414.626 832.296 414.163 832.473 413.72C832.7 413.099 832.936 412.489 833.173 411.888C833.34 411.425 833.508 410.952 833.673 410.488C833.89 409.888 834.106 409.296 834.323 408.695C834.49 408.212 834.648 407.739 834.816 407.257C835.016 406.666 835.216 406.085 835.416 405.494C835.583 405.001 835.731 404.519 835.899 404.036C836.086 403.445 836.283 402.874 836.451 402.283C836.618 401.79 836.756 401.318 836.904 400.825C837.091 400.254 837.259 399.663 837.436 399.091C837.574 398.598 837.722 398.116 837.869 397.623C838.036 397.052 838.194 396.47 838.361 395.899C838.499 395.406 838.637 394.924 838.775 394.431C838.923 393.86 839.09 393.269 839.238 392.697C839.366 392.214 839.494 391.732 839.622 391.239C839.77 390.668 839.927 390.086 840.065 389.505C840.183 389.022 840.301 388.549 840.42 388.057C840.558 387.486 840.706 386.895 840.834 386.323C840.952 385.84 841.061 385.367 841.169 384.885C841.307 384.294 841.445 383.703 841.569 383.112C841.669 382.659 841.776 382.186 841.874 381.733C842.002 381.122 842.12 380.512 842.258 379.921C842.347 379.478 842.445 379.015 842.534 378.571L842.889 376.709C842.978 376.285 843.066 375.852 843.135 375.428C843.263 374.768 843.381 374.088 843.49 373.428C843.569 373.044 843.628 372.679 843.697 372.305C843.835 371.468 843.983 370.64 844.111 369.813C844.141 369.606 844.19 369.389 844.219 369.183C844.386 368.149 844.544 367.114 844.702 366.1C844.741 365.785 844.791 365.479 844.83 365.164C844.938 364.445 845.037 363.726 845.135 363.017C845.174 362.712 845.214 362.416 845.253 362.13H876.125C906.199 362.13 933.425 372.266 953.146 388.657C972.867 405.048 985.062 427.665 985.062 452.676C985.062 502.687 936.282 543.222 876.125 543.222H847.873C787.696 543.222 738.926 583.767 738.926 633.758L738.917 633.802Z" fill="#CCD2D6"/>
<path d="M836.861 697.407C869.546 697.407 896.043 670.91 896.043 638.225C896.043 605.54 869.546 579.043 836.861 579.043C804.176 579.043 777.679 605.54 777.679 638.225C777.679 670.91 804.176 697.407 836.861 697.407Z" fill="#CCD2D6"/>
<path d="M134.716 215.155C121.913 247.427 115.358 281.837 115.399 316.555C115.399 321.185 115.514 325.788 115.744 330.365C102.5 325.832 91.2913 316.752 84.1075 304.738C76.9238 292.724 74.2301 278.553 76.5048 264.741C78.7795 250.928 85.8753 238.369 96.5323 229.293C107.189 220.217 120.718 215.212 134.716 215.165V215.155Z" fill="#CCD2D6"/>
<path d="M194.085 274.336C194.094 283.2 192.107 291.951 188.272 299.942C184.436 307.933 178.851 314.958 171.931 320.496C171.901 319.186 171.892 317.866 171.892 316.556C171.865 291.3 176.228 266.232 184.786 242.47C190.877 251.984 194.106 263.049 194.086 274.346L194.085 274.336Z" fill="#CCD2D6"/>
</g>
<g opacity="0.5">
<path d="M390.268 41.687C238.468 41.687 115.409 164.75 115.409 316.546C115.409 468.342 238.472 591.405 390.268 591.405C463.165 591.405 533.076 562.446 584.622 510.9C636.168 459.354 665.127 389.443 665.127 316.546C665.127 164.746 542.065 41.687 390.268 41.687ZM390.268 534.912C269.668 534.912 171.902 437.146 171.902 316.546C171.902 195.946 269.668 98.18 390.268 98.18C510.868 98.18 608.634 195.946 608.634 316.546C608.634 437.146 510.878 534.912 390.268 534.912Z" fill="#CCD2D6"/>
</g>
<path d="M390.268 594.37C335.32 594.372 281.606 578.079 235.918 547.553C190.23 517.027 154.62 473.637 133.592 422.872C112.564 372.107 107.063 316.246 117.783 262.355C128.503 208.463 154.964 158.96 193.819 120.107C222.732 91.2316 257.66 69.0898 296.111 55.26C334.562 41.4302 375.591 36.2529 416.273 40.0971C456.954 43.9412 496.287 56.7123 531.467 77.4998C566.648 98.2874 596.809 126.58 619.802 160.36C642.795 194.14 658.052 232.576 664.488 272.929C670.923 313.282 668.378 354.558 657.033 393.814C645.688 433.071 625.823 469.341 598.854 500.04C571.885 530.74 538.476 555.112 501.008 571.419C466.073 586.635 428.364 594.45 390.259 594.371L390.268 594.37ZM390.268 44.652C240.343 44.652 118.368 166.631 118.368 316.552C118.368 466.473 240.347 588.452 390.268 588.452C462.38 588.45 531.538 559.803 582.529 508.813C633.519 457.822 662.166 388.664 662.168 316.552C662.168 166.627 540.189 44.652 390.268 44.652ZM390.268 537.877C339.066 537.875 289.449 520.12 249.871 487.637C210.293 455.154 183.201 409.953 173.213 359.735C163.225 309.517 170.959 257.39 195.095 212.234C219.232 167.079 258.279 131.689 305.583 112.095C352.887 92.5014 405.522 89.9156 454.519 104.778C503.516 119.641 545.843 151.033 574.29 193.605C602.737 236.177 615.542 287.296 610.525 338.251C605.507 389.206 582.977 436.845 546.773 473.051C526.269 493.669 501.879 510.016 475.015 521.143C448.151 532.271 419.346 537.958 390.268 537.877ZM390.268 101.144C271.49 101.144 174.857 197.778 174.857 316.555C174.857 435.332 271.494 531.967 390.268 531.967C509.042 531.967 605.679 435.333 605.679 316.556C605.679 197.779 509.046 101.145 390.268 101.145V101.144Z" fill="#CCD2D6"/>
<g opacity="0.75">
<path d="M773.197 743.025C799.803 805.517 737.548 856.542 676.347 797.607C627.685 750.768 565.706 635.842 542.321 590.657C547.691 589.561 552.74 587.257 557.087 583.919L590.677 558.15C596.715 553.535 601.133 547.123 603.295 539.838C640.53 576.482 749.004 686.148 773.195 743.025H773.197Z" fill="#CCD2D6"/>
</g>
<path d="M730.889 826.645C714.32 826.645 694.659 819.356 674.289 799.733C625.578 752.845 563.924 638.844 539.682 592.015L537.882 588.538L541.724 587.76C546.656 586.764 551.291 584.643 555.268 581.56L588.858 555.791C594.406 551.561 598.462 545.673 600.438 538.982L601.838 534.264L605.345 537.712C648.638 580.313 751.91 685.482 775.896 741.852C788.702 771.926 782.319 802.462 760.017 817.829C751.422 823.651 741.26 826.72 730.879 826.629L730.889 826.645ZM546.655 592.607C571.852 641.032 631.418 750.254 678.396 795.482C710.282 826.182 739.745 824.649 756.678 812.982C773.256 801.555 783.954 775.855 770.478 744.182C746.994 688.96 641.485 581.747 604.487 545.162C601.849 551.21 597.713 556.485 592.469 560.489L558.879 586.258C555.215 589.086 551.076 591.236 546.655 592.607Z" fill="#CCD2D6"/>
<path d="M603.286 539.838C601.123 547.12 596.704 553.527 590.667 558.138L557.067 583.907C552.73 587.257 547.682 589.566 542.311 590.655C535.666 592.016 528.772 591.48 522.417 589.107C516.062 586.735 510.503 582.622 506.376 577.239L499.816 568.708C535.257 553.262 567.051 530.53 593.13 501.99L597.336 507.477C600.821 512.015 603.176 517.318 604.207 522.946C605.238 528.574 604.916 534.367 603.266 539.846L603.286 539.838Z" fill="#CCD2D6"/>
<path d="M587.544 641.308C587.038 641.308 586.541 641.179 586.1 640.932C585.658 640.685 585.287 640.33 585.022 639.899C578.709 629.604 573.165 618.858 568.434 607.747C568.127 607.026 568.119 606.212 568.411 605.485C568.704 604.758 569.273 604.177 569.995 603.87C570.716 603.562 571.529 603.554 572.256 603.847C572.984 604.139 573.565 604.709 573.872 605.43C578.492 616.275 583.904 626.765 590.066 636.814C590.341 637.262 590.492 637.775 590.502 638.301C590.513 638.827 590.383 639.346 590.126 639.804C589.869 640.263 589.494 640.645 589.04 640.91C588.586 641.175 588.07 641.315 587.544 641.314V641.308Z" fill="#CCD2D6"/>
<path d="M678.977 761.11C678.561 761.11 678.149 761.022 677.769 760.852C677.389 760.683 677.049 760.435 676.771 760.125C647.544 727.401 621.135 691.565 595.593 656.901C595.363 656.589 595.197 656.234 595.104 655.857C595.012 655.481 594.994 655.09 595.052 654.706C595.111 654.323 595.244 653.955 595.445 653.623C595.645 653.291 595.91 653.002 596.222 652.772C596.534 652.542 596.889 652.376 597.266 652.283C597.642 652.191 598.033 652.173 598.417 652.231C598.8 652.29 599.168 652.423 599.5 652.624C599.832 652.824 600.121 653.089 600.351 653.401C625.805 687.957 652.135 723.684 681.174 756.201C681.556 756.626 681.806 757.153 681.894 757.717C681.983 758.281 681.906 758.859 681.673 759.381C681.44 759.902 681.06 760.345 680.581 760.656C680.101 760.966 679.542 761.131 678.971 761.13L678.977 761.11Z" fill="#CCD2D6"/>
<path d="M706.322 792.888C705.562 792.891 704.831 792.597 704.283 792.07C698.313 786.385 692.722 780.313 687.547 773.896C687.303 773.594 687.121 773.247 687.011 772.874C686.902 772.502 686.866 772.112 686.908 771.726C686.949 771.34 687.065 770.966 687.251 770.625C687.437 770.284 687.688 769.983 687.99 769.739C688.292 769.495 688.639 769.313 689.012 769.203C689.384 769.094 689.774 769.058 690.16 769.1C690.546 769.141 690.92 769.257 691.261 769.443C691.602 769.629 691.903 769.88 692.147 770.182C697.161 776.397 702.578 782.276 708.361 787.782C708.79 788.188 709.087 788.713 709.215 789.29C709.342 789.867 709.293 790.468 709.074 791.017C708.856 791.565 708.477 792.036 707.989 792.367C707.5 792.698 706.923 792.875 706.332 792.875L706.322 792.888Z" fill="#CCD2D6"/>
<path d="M585.19 591.494C584.561 591.492 583.949 591.29 583.442 590.916C582.936 590.543 582.562 590.018 582.374 589.417C582.186 588.816 582.195 588.172 582.398 587.576C582.602 586.981 582.99 586.466 583.506 586.106C594.694 578.313 605.176 569.551 614.831 559.923C615.385 559.369 616.136 559.058 616.92 559.058C617.703 559.058 618.454 559.369 619.008 559.923C619.562 560.477 619.873 561.228 619.873 562.012C619.873 562.795 619.562 563.546 619.008 564.1C609.108 573.975 598.36 582.96 586.886 590.952C586.392 591.297 585.804 591.482 585.201 591.484L585.19 591.494Z" fill="#CCD2D6"/>
<g opacity="0.5">
<path d="M492.53 256.103V431.511C492.53 435.137 491.089 438.615 488.525 441.179C485.961 443.743 482.483 445.184 478.857 445.184H301.702C299.906 445.185 298.127 444.832 296.467 444.145C294.808 443.458 293.299 442.451 292.029 441.182C290.758 439.912 289.75 438.404 289.062 436.745C288.375 435.086 288.02 433.307 288.02 431.511V201.591C288.02 199.795 288.375 198.016 289.062 196.357C289.75 194.698 290.758 193.19 292.029 191.92C293.299 190.651 294.808 189.644 296.467 188.957C298.127 188.27 299.906 187.917 301.702 187.918H424.341C426.297 187.914 428.23 188.338 430.005 189.159C431.496 189.835 432.853 190.773 434.014 191.927L488.53 246.438C489.802 247.707 490.81 249.215 491.496 250.875C492.182 252.535 492.534 254.315 492.53 256.111V256.103Z" fill="#CCD2D6"/>
</g>
<path d="M478.844 448.139H301.693C297.283 448.137 293.054 446.385 289.934 443.267C286.815 440.149 285.06 435.921 285.055 431.511V201.591C285.061 197.181 286.817 192.954 289.936 189.837C293.055 186.719 297.283 184.967 301.693 184.963H424.332C428.733 184.969 432.954 186.715 436.074 189.819L490.597 244.342C492.897 246.638 494.472 249.559 495.128 252.742C495.359 253.843 495.475 254.966 495.473 256.091V431.502C495.469 435.911 493.716 440.138 490.598 443.255C487.481 446.373 483.254 448.126 478.845 448.13L478.844 448.139ZM301.693 190.873C298.85 190.874 296.124 192.003 294.113 194.013C292.101 196.022 290.97 198.747 290.966 201.59V431.512C290.971 434.354 292.103 437.079 294.114 439.088C296.125 441.097 298.851 442.226 301.693 442.229H478.844C481.685 442.226 484.409 441.096 486.419 439.087C488.428 437.077 489.558 434.353 489.561 431.512V256.103C489.564 255.382 489.492 254.662 489.344 253.956C488.926 251.895 487.908 250.003 486.418 248.519L431.905 194.006C431.002 193.105 429.944 192.375 428.782 191.849C427.387 191.202 425.867 190.87 424.33 190.874H301.693V190.873Z" fill="#CCD2D6"/>
<g opacity="0.75">
<path d="M492.241 253.346H438.635C437.5 253.346 436.377 253.123 435.329 252.689C434.28 252.255 433.328 251.619 432.526 250.816C431.723 250.014 431.087 249.062 430.653 248.013C430.219 246.965 429.996 245.842 429.996 244.707V189.15C431.487 189.826 432.844 190.764 434.005 191.918L488.518 246.431C490.409 248.322 491.703 250.726 492.241 253.346Z" fill="#CCD2D6"/>
</g>
<g opacity="0.75">
<path d="M435.438 352.786C436.687 354.039 437.389 355.735 437.389 357.504C437.389 359.274 436.687 360.97 435.438 362.223L425.903 371.778C424.646 373.027 422.947 373.729 421.174 373.729C419.402 373.729 417.703 373.027 416.446 371.778L390.224 345.536C388.971 344.287 387.275 343.585 385.505 343.585C383.736 343.585 382.04 344.287 380.787 345.536L354.565 371.758C353.312 373.007 351.615 373.708 349.846 373.708C348.078 373.708 346.381 373.007 345.128 371.758L335.593 362.223C334.344 360.97 333.642 359.274 333.642 357.504C333.642 355.735 334.344 354.039 335.593 352.786L361.815 326.564C363.064 325.311 363.765 323.614 363.765 321.845C363.765 320.077 363.064 318.38 361.815 317.127L335.578 290.905C334.329 289.648 333.628 287.949 333.628 286.177C333.628 284.405 334.329 282.705 335.578 281.449L345.133 271.914C346.386 270.665 348.083 269.964 349.852 269.964C351.62 269.964 353.317 270.665 354.57 271.914L380.792 298.136C382.049 299.385 383.748 300.087 385.52 300.087C387.292 300.087 388.992 299.385 390.249 298.136L416.471 271.914C417.724 270.665 419.42 269.963 421.189 269.963C422.959 269.963 424.655 270.665 425.908 271.914L435.443 281.449C436.692 282.702 437.394 284.398 437.394 286.167C437.394 287.937 436.692 289.633 435.443 290.886L409.221 317.108C407.972 318.364 407.27 320.064 407.27 321.836C407.27 323.608 407.972 325.308 409.221 326.565L435.443 352.787L435.438 352.786Z" fill="#CCD2D6"/>
</g>
<g opacity="0.5">
<path d="M107.372 635.052L163.717 545.297C164.693 543.739 166.023 542.434 167.6 541.489C169.178 540.544 170.956 539.986 172.79 539.861C174.624 539.736 176.462 540.048 178.153 540.77C179.844 541.492 181.339 542.604 182.517 544.016C195.756 559.934 221.249 586.334 252.899 598.204C274.946 606.463 298.32 610.613 321.863 610.448C323.736 610.43 325.586 610.865 327.256 611.716C328.925 612.567 330.364 613.808 331.451 615.334C332.538 616.86 333.241 618.625 333.499 620.481C333.757 622.337 333.564 624.227 332.935 625.992L298.921 721.838C298.037 724.326 296.334 726.44 294.092 727.834C291.849 729.228 289.2 729.82 286.578 729.512C255.967 725.943 157.399 709.965 108.16 648.577C106.637 646.684 105.74 644.364 105.595 641.939C105.451 639.513 106.065 637.103 107.352 635.042L107.372 635.052Z" fill="#CCD2D6"/>
</g>
<path d="M287.99 732.553C287.411 732.554 286.832 732.52 286.256 732.453C256.606 729.005 155.963 712.89 105.863 650.438C103.956 648.066 102.835 645.159 102.656 642.121C102.477 639.083 103.248 636.065 104.863 633.485L161.208 543.727C162.432 541.772 164.101 540.135 166.08 538.95C168.059 537.765 170.29 537.066 172.591 536.91C174.892 536.754 177.197 537.145 179.317 538.052C181.438 538.959 183.313 540.355 184.79 542.127C197.152 556.982 222.567 583.667 253.941 595.438C275.647 603.574 298.661 607.661 321.841 607.495C324.19 607.472 326.51 608.017 328.604 609.082C330.698 610.148 332.503 611.703 333.868 613.615C335.232 615.528 336.115 617.741 336.441 620.068C336.767 622.394 336.527 624.765 335.741 626.979L301.741 722.825C300.744 725.674 298.883 728.142 296.419 729.885C293.955 731.628 291.009 732.561 287.99 732.553ZM109.873 636.628C108.912 638.169 108.455 639.971 108.565 641.784C108.674 643.597 109.345 645.33 110.484 646.745C159.175 707.434 257.858 723.205 286.946 726.583C288.905 726.82 290.885 726.382 292.561 725.341C294.238 724.301 295.509 722.72 296.166 720.86L330.166 625.014C330.629 623.705 330.772 622.303 330.582 620.928C330.393 619.552 329.877 618.241 329.078 617.106C328.278 615.97 327.219 615.043 325.987 614.4C324.756 613.758 323.389 613.42 322 613.414H321.9C297.992 613.576 274.255 609.363 251.863 600.983C219.209 588.739 192.977 561.226 180.24 545.919C179.361 544.865 178.246 544.035 176.984 543.496C175.723 542.957 174.351 542.725 172.983 542.818C171.614 542.911 170.287 543.327 169.11 544.032C167.934 544.737 166.941 545.711 166.213 546.874L109.873 636.628Z" fill="#CCD2D6"/>
<path d="M152.791 658.103C152.268 658.107 151.754 657.968 151.304 657.703C150.969 657.506 150.676 657.246 150.441 656.936C150.207 656.626 150.036 656.273 149.938 655.897C149.84 655.521 149.818 655.129 149.871 654.744C149.924 654.36 150.053 653.989 150.25 653.654L191.859 582.642C192.056 582.308 192.316 582.015 192.626 581.782C192.936 581.548 193.288 581.377 193.664 581.28C194.039 581.183 194.43 581.16 194.815 581.214C195.199 581.268 195.569 581.396 195.903 581.593C196.237 581.79 196.53 582.05 196.764 582.36C196.997 582.67 197.168 583.022 197.265 583.398C197.362 583.773 197.385 584.164 197.331 584.549C197.278 584.933 197.149 585.303 196.952 585.637L155.343 656.649C155.082 657.093 154.709 657.462 154.261 657.717C153.814 657.973 153.307 658.107 152.792 658.107L152.791 658.103Z" fill="#CCD2D6"/>
<path d="M194.4 654.488C193.986 654.489 193.577 654.402 193.2 654.232C192.845 654.075 192.525 653.849 192.257 653.568C191.99 653.287 191.781 652.955 191.641 652.593C191.502 652.231 191.435 651.845 191.445 651.457C191.456 651.069 191.542 650.686 191.7 650.332L211.667 605.384C211.993 604.68 212.583 604.132 213.309 603.859C214.035 603.586 214.84 603.61 215.549 603.925C216.258 604.24 216.815 604.821 217.099 605.543C217.383 606.265 217.371 607.07 217.067 607.784L197.095 652.73C196.864 653.253 196.487 653.697 196.008 654.009C195.53 654.321 194.971 654.487 194.4 654.488Z" fill="#CCD2D6"/>
<g opacity="0.25">
<path d="M263.659 778.152C263.182 775.666 263.529 773.093 264.648 770.822C265.767 768.552 267.597 766.709 269.859 765.573C284.389 758.323 315.221 740.011 330.351 709.267C339.039 691.605 344.23 679.735 347.323 671.943C347.953 670.35 348.926 668.916 350.174 667.743C351.422 666.569 352.913 665.686 354.542 665.155C356.17 664.625 357.896 664.46 359.596 664.673C361.295 664.886 362.927 665.471 364.374 666.387L450.102 720.565C452.407 722.021 454.129 724.24 454.966 726.835C455.803 729.43 455.703 732.236 454.683 734.765C447.423 752.732 427.183 792.865 383.749 818.031C342.584 841.889 305.792 848.607 288.317 850.508C285.41 850.819 282.492 850.024 280.144 848.281C277.797 846.538 276.192 843.974 275.649 841.101L263.659 778.152Z" fill="#CCD2D6"/>
</g>
<path d="M287.094 853.538C283.7 853.521 280.417 852.329 277.803 850.165C275.188 848.001 273.403 844.999 272.752 841.668L260.764 778.713C260.173 775.596 260.612 772.371 262.013 769.524C263.415 766.678 265.705 764.364 268.536 762.932C281.342 756.539 312.725 738.385 327.688 707.966C335.066 692.983 340.74 680.493 344.572 670.859C345.363 668.863 346.584 667.066 348.148 665.596C349.713 664.126 351.582 663.019 353.623 662.354C355.665 661.689 357.827 661.482 359.958 661.748C362.088 662.015 364.133 662.748 365.948 663.895L451.677 718.073C454.57 719.898 456.73 722.681 457.78 725.936C458.829 729.191 458.702 732.712 457.42 735.883C450.613 752.718 429.967 794.671 385.226 820.607C343.893 844.563 306.964 851.469 288.632 853.458C288.118 853.514 287.602 853.54 287.085 853.537L287.094 853.538ZM358.166 667.538C356.421 667.536 354.717 668.06 353.274 669.041C351.832 670.022 350.718 671.415 350.079 673.038C346.198 682.82 340.455 695.448 333.008 710.568C317.818 741.449 287.755 759.939 271.186 768.213C269.503 769.065 268.142 770.442 267.311 772.136C266.479 773.829 266.221 775.748 266.576 777.601L278.563 840.55C278.976 842.689 280.175 844.596 281.923 845.896C283.671 847.195 285.843 847.794 288.01 847.573C305.879 845.632 341.882 838.895 382.279 815.48C425.434 790.47 445.379 749.925 451.962 733.662C452.726 731.775 452.803 729.679 452.178 727.741C451.553 725.804 450.267 724.147 448.544 723.062L362.814 668.89C361.426 668.012 359.817 667.544 358.174 667.541L358.166 667.538Z" fill="#CCD2D6"/>
<g opacity="0.25">
<path d="M667.038 472.047C665.095 471.033 663.4 469.601 662.075 467.856C660.75 466.11 659.826 464.093 659.372 461.949C658.917 459.804 658.942 457.586 659.445 455.453C659.948 453.319 660.916 451.324 662.28 449.608C679.233 428.242 708.794 384.526 712.025 336.051C715.256 287.606 708.351 264.979 704.056 255.907C703.808 255.394 703.7 254.824 703.744 254.256C703.787 253.688 703.98 253.141 704.304 252.672C704.627 252.202 705.069 251.827 705.584 251.584C706.1 251.34 706.67 251.238 707.238 251.287L838.664 262.901C839.345 262.961 839.989 263.235 840.504 263.684C841.019 264.133 841.379 264.735 841.53 265.401C844.63 279.438 859.143 355.218 827.966 424.625C797.942 491.471 768.41 514.462 761.229 519.318C760.748 519.646 760.186 519.837 759.605 519.87C759.024 519.902 758.444 519.776 757.929 519.505L667.048 472.025L667.038 472.047Z" fill="#CCD2D6"/>
</g>
<path d="M759.091 522.186C757.49 522.186 755.912 521.801 754.491 521.063L669.727 476.785C666.925 475.319 664.478 473.257 662.558 470.743C660.639 468.23 659.293 465.327 658.616 462.237C657.939 459.148 657.948 455.948 658.641 452.862C659.334 449.777 660.694 446.88 662.627 444.377C678.664 423.514 706.027 381.659 709.082 335.864C711.751 295.764 707.476 273.658 703.418 262.172C702.862 260.595 702.71 258.904 702.977 257.253C703.244 255.602 703.921 254.045 704.946 252.723C705.971 251.402 707.311 250.359 708.844 249.69C710.376 249.021 712.052 248.747 713.718 248.893L836.118 259.709C838.263 259.887 840.293 260.76 841.898 262.194C843.504 263.628 844.599 265.546 845.018 267.658C849.155 288.049 860.365 359.701 830.656 425.847C802.927 487.57 775.572 512.394 765.101 520.195C763.363 521.483 761.256 522.177 759.092 522.175L759.091 522.186ZM712.813 254.764C712.163 254.766 711.523 254.924 710.947 255.225C710.37 255.525 709.874 255.959 709.5 256.491C709.126 257.022 708.884 257.636 708.796 258.28C708.707 258.923 708.774 259.579 708.991 260.192C713.237 272.2 717.719 295.151 714.98 336.248C711.828 383.599 683.764 426.567 667.313 447.963C665.906 449.783 664.915 451.889 664.409 454.133C663.904 456.377 663.897 458.704 664.388 460.951C664.879 463.199 665.857 465.311 667.252 467.139C668.648 468.968 670.427 470.468 672.465 471.535L757.229 515.814C757.913 516.172 758.685 516.327 759.454 516.263C760.223 516.198 760.958 515.917 761.573 515.45C771.68 507.924 798.109 483.879 825.266 423.417C854.246 358.886 843.283 288.78 839.224 268.823C839.051 267.962 838.603 267.18 837.948 266.595C837.292 266.011 836.464 265.655 835.589 265.582L713.189 254.766C713.061 254.756 712.933 254.746 712.805 254.746L712.813 254.764Z" fill="#CCD2D6"/>
<path d="M814.875 297.516C814.775 297.519 814.674 297.513 814.575 297.496L726.375 288.621C725.985 288.586 725.606 288.474 725.26 288.292C724.914 288.11 724.607 287.86 724.358 287.558C724.109 287.257 723.922 286.908 723.809 286.534C723.695 286.159 723.657 285.766 723.697 285.377C723.737 284.987 723.853 284.61 724.04 284.266C724.227 283.922 724.48 283.619 724.785 283.373C725.09 283.128 725.441 282.946 725.816 282.837C726.192 282.728 726.586 282.695 726.975 282.74L815.175 291.615C815.928 291.694 816.622 292.058 817.115 292.633C817.607 293.209 817.86 293.951 817.822 294.707C817.784 295.464 817.456 296.176 816.908 296.699C816.36 297.221 815.632 297.513 814.875 297.515V297.516Z" fill="#CCD2D6"/>
<path d="M779.511 328.022C779.326 328.02 779.141 328.004 778.959 327.973L733.883 319.462C733.494 319.399 733.122 319.259 732.788 319.049C732.454 318.84 732.165 318.566 731.939 318.244C731.713 317.921 731.553 317.557 731.47 317.172C731.387 316.786 731.382 316.389 731.455 316.001C731.528 315.614 731.677 315.246 731.895 314.917C732.113 314.589 732.394 314.307 732.722 314.089C733.05 313.871 733.419 313.721 733.806 313.648C734.193 313.574 734.591 313.579 734.976 313.662L780.052 322.173C780.774 322.309 781.419 322.71 781.862 323.296C782.304 323.883 782.512 324.614 782.444 325.345C782.376 326.077 782.038 326.757 781.495 327.252C780.953 327.748 780.245 328.023 779.51 328.024L779.511 328.022Z" fill="#CCD2D6"/>
<path d="M773.266 412.343C772.968 412.346 772.672 412.299 772.389 412.205L720.802 396.119C720.067 395.874 719.458 395.351 719.105 394.661C718.752 393.972 718.683 393.171 718.914 392.432C719.145 391.693 719.657 391.073 720.34 390.707C721.022 390.342 721.821 390.258 722.565 390.475L774.152 406.561C774.826 406.773 775.402 407.218 775.775 407.817C776.149 408.416 776.297 409.13 776.191 409.828C776.085 410.526 775.733 411.163 775.198 411.625C774.663 412.086 773.981 412.341 773.275 412.343H773.266Z" fill="#CCD2D6"/>
<path d="M166.622 542.773C168.603 541.198 171.06 540.341 173.591 540.341C176.122 540.341 178.579 541.198 180.56 542.773H166.632H166.622Z" fill="#CCD2D6"/>
<path d="M173.606 540.823C175.496 540.818 177.352 541.318 178.984 542.271H168.208C169.849 541.315 171.717 540.815 173.616 540.823M173.616 539.838C172.081 539.836 170.561 540.136 169.143 540.723C167.724 541.309 166.436 542.17 165.351 543.256H181.841C180.764 542.169 179.481 541.306 178.067 540.72C176.653 540.133 175.137 539.833 173.606 539.838H173.616Z" fill="#CCD2D6"/>
</svg>
